<svg xmlns="http://www.w3.org/2000/svg" width="16" height="16" viewBox="0 0 16 16">
    <g fill="none" fill-opacity=".6" fill-rule="evenodd">
        <g fill="#CED4DE">
            <g>
                <path d="M8 0c4.418 0 8 3.582 8 8s-3.582 8-8 8-8-3.582-8-8 3.582-8 8-8zm4.09 5.048c-.294-.224-.715-.202-.984.067L6.788 9.432 4.894 7.54l-.077-.067c-.294-.224-.715-.201-.984.067-.293.293-.293.768 0 1.06l2.424 2.425.077.067c.294.224.716.202.984-.067l4.849-4.849.067-.077c.224-.293.201-.715-.067-.983z" transform="translate(-95.000000, -759.000000) translate(95.000000, 759.000000)"/>
            </g>
        </g>
    </g>
</svg>
