<?xml version="1.0" encoding="UTF-8"?>
<svg width="26px" height="15px" viewBox="0 0 26 15" version="1.1" xmlns="http://www.w3.org/2000/svg" xmlns:xlink="http://www.w3.org/1999/xlink">
    <title>icon/32/credit_pay</title>
    <g id="1.4-註冊_和泰會員" stroke="none" stroke-width="1" fill="none" fill-rule="evenodd">
        <g id="和泰會員登入信用卡選擇" transform="translate(-58.000000, -189.000000)" fill-rule="nonzero">
            <g id="cell/profile_status-copy-2" transform="translate(55.000000, 176.000000)">
                <g id="Group" transform="translate(0.000000, 4.000000)">
                    <g id="_Group_" transform="translate(3.000000, 9.000000)">
                        <rect id="Rectangle" fill="#FF5F00" x="9.30545455" y="1.62669988" width="6.87272727" height="11.7308892"></rect>
                        <path d="M9.74181818,7.49318057 C9.73924858,5.2036766 10.8455659,3.04028015 12.7418182,1.62669988 C9.5214088,-0.777075197 4.89677178,-0.426944571 2.11797772,2.43102936 C-0.660816333,5.28900329 -0.660816333,9.69528563 2.11797772,12.5532596 C4.89677178,15.4112335 9.5214088,15.7613641 12.7418182,13.357589 C10.8461692,11.9444575 9.73991942,9.78195736 9.74181818,7.49318057 L9.74181818,7.49318057 Z" id="_Path_" fill="#EB001B"></path>
                        <path d="M25.4509091,7.49318057 C25.4509091,10.3494128 23.7336918,12.9548825 21.0287466,14.2030365 C18.3238014,15.4511906 15.1059469,15.1228993 12.7418182,13.357589 C14.6366401,11.9432578 15.7429731,9.78104515 15.7429731,7.49214446 C15.7429731,5.20324376 14.6366401,3.04103111 12.7418182,1.62669988 C15.1059469,-0.138610335 18.3238014,-0.466901703 21.0287466,0.781252376 C23.7336918,2.02940645 25.4509091,4.6348761 25.4509091,7.49110834 L25.4509091,7.49318057 Z" id="Path" fill="#F79E1B"></path>
                        <path d="M24.7765761,12.4043636 L24.7765761,11.9236065 L24.9288713,11.9236065 L24.9288713,11.8241395 L24.5432727,11.8241395 L24.5432727,11.9236065 L24.7085293,11.9236065 L24.7085293,12.4043636 L24.7765761,12.4043636 Z M25.5250909,12.4043636 L25.5250909,11.8241395 L25.4084392,11.8241395 L25.2723456,12.2385853 L25.136252,11.8241395 L25.0325617,11.8241395 L25.0325617,12.4043636 L25.1168101,12.4043636 L25.1168101,11.9691955 L25.2431827,12.3463412 L25.3306715,12.3463412 L25.4570441,11.9691955 L25.4570441,12.4085081 L25.5250909,12.4043636 Z" id="Shape" fill="#F79E1B"></path>
                    </g>
                </g>
            </g>
        </g>
    </g>
</svg>