<?xml version="1.0" encoding="UTF-8"?>
<svg width="26px" height="20px" viewBox="0 0 26 20" version="1.1" xmlns="http://www.w3.org/2000/svg" xmlns:xlink="http://www.w3.org/1999/xlink">
    <title>icon/32/credit_pay</title>
    <defs>
        <linearGradient x1="-57.5270968%" y1="50.1241953%" x2="232.39121%" y2="50.1241953%" id="linearGradient-1">
            <stop stop-color="#007940" offset="0%"></stop>
            <stop stop-color="#00873F" offset="22.85%"></stop>
            <stop stop-color="#40A737" offset="74.33%"></stop>
            <stop stop-color="#5CB531" offset="100%"></stop>
        </linearGradient>
        <linearGradient x1="0.182516704%" y1="49.95997%" x2="100.273441%" y2="49.95997%" id="linearGradient-2">
            <stop stop-color="#007940" offset="0%"></stop>
            <stop stop-color="#00873F" offset="22.85%"></stop>
            <stop stop-color="#40A737" offset="74.33%"></stop>
            <stop stop-color="#5CB531" offset="100%"></stop>
        </linearGradient>
        <linearGradient x1="-62.8015845%" y1="49.8578253%" x2="253.671294%" y2="49.8578253%" id="linearGradient-3">
            <stop stop-color="#007940" offset="0%"></stop>
            <stop stop-color="#00873F" offset="22.85%"></stop>
            <stop stop-color="#40A737" offset="74.33%"></stop>
            <stop stop-color="#5CB531" offset="100%"></stop>
        </linearGradient>
        <linearGradient x1="0.175556793%" y1="50.0058048%" x2="101.808162%" y2="50.0058048%" id="linearGradient-4">
            <stop stop-color="#1F286F" offset="0%"></stop>
            <stop stop-color="#004E94" offset="47.51%"></stop>
            <stop stop-color="#0066B1" offset="82.61%"></stop>
            <stop stop-color="#006FBC" offset="100%"></stop>
        </linearGradient>
        <linearGradient x1="-0.575855512%" y1="49.9142191%" x2="98.13299%" y2="49.9142191%" id="linearGradient-5">
            <stop stop-color="#6C2C2F" offset="0%"></stop>
            <stop stop-color="#882730" offset="17.35%"></stop>
            <stop stop-color="#BE1833" offset="57.31%"></stop>
            <stop stop-color="#DC0436" offset="85.85%"></stop>
            <stop stop-color="#E60039" offset="100%"></stop>
        </linearGradient>
    </defs>
    <g id="1.4-註冊_和泰會員" stroke="none" stroke-width="1" fill="none" fill-rule="evenodd">
        <g id="和泰會員登入信用卡選擇" transform="translate(-58.000000, -243.000000)" fill-rule="nonzero">
            <g id="Group-3" transform="translate(55.000000, 232.000000)">
                <g id="Group" transform="translate(0.000000, 5.000000)">
                    <g id="https-svgporn-com-seeklogo.com" transform="translate(3.000000, 6.000000)">
                        <path d="M25.3500001,15.5032971 C25.3500001,17.6608136 23.5835575,19.4176484 21.4142421,19.4176484 L-1.97410176e-09,19.4176484 L-1.97410176e-09,3.91435139 C-1.97410176e-09,1.75683489 1.76644255,3.63799068e-08 3.93575796,3.63799068e-08 L25.3500001,3.63799068e-08 L25.3500001,15.5032971 Z" id="Path" fill="#FFFFFF"></path>
                        <path d="M18.3772006,11.5273024 L20.004187,11.5273024 C20.0506724,11.5273024 20.1591382,11.5118917 20.2056236,11.5118917 C20.5155258,11.4502483 20.7789426,11.1728533 20.7789426,10.7875825 C20.7789426,10.4177225 20.5155258,10.1403276 20.2056236,10.0632734 C20.1591382,10.0478626 20.0661676,10.0478626 20.004187,10.0478626 L18.3772006,10.0478626 L18.3772006,11.5273024 Z" id="Path" fill="url(#linearGradient-1)"></path>
                        <path d="M19.8182458,1.30992076 C18.2687349,1.30992076 16.9981357,2.55819817 16.9981357,4.1146922 L16.9981357,7.02733948 L20.980379,7.02733948 C21.0733497,7.02733948 21.1818156,7.02733948 21.2592911,7.0427503 C22.1580074,7.08898283 22.8242971,7.55130778 22.8242971,8.35267102 C22.8242971,8.98451514 22.374939,9.5238943 21.538203,9.63177012 L21.538203,9.66259174 C22.4524145,9.72423508 23.1496945,10.2327925 23.1496945,11.0187449 C23.1496945,11.8663407 22.374939,12.4211308 21.3522617,12.4211308 L16.9826406,12.4211308 L16.9826406,18.1231386 L21.119835,18.1231386 C22.6693461,18.1231386 23.9399451,16.8748612 23.9399451,15.3183672 L23.9399451,1.30992076 L19.8182458,1.30992076 L19.8182458,1.30992076 Z" id="Path" fill="url(#linearGradient-2)"></path>
                        <path d="M20.5775062,8.53760104 C20.5775062,8.16774105 20.3140893,7.92116773 20.004187,7.87493525 C19.973197,7.87493525 19.8957213,7.85952439 19.8492361,7.85952439 L18.3772006,7.85952439 L18.3772006,9.21567764 L19.8492361,9.21567764 C19.8957213,9.21567764 19.9886921,9.21567764 20.004187,9.20026678 C20.3140893,9.1540343 20.5775062,8.90746099 20.5775062,8.53760104 L20.5775062,8.53760104 Z" id="Path" fill="url(#linearGradient-3)"></path>
                        <path d="M4.23016506,1.30992076 C2.68065404,1.30992076 1.41005501,2.55819817 1.41005501,4.1146922 L1.41005501,11.0341558 C2.20030562,11.4194266 3.02154646,11.6659999 3.8427873,11.6659999 C4.81897923,11.6659999 5.345813,11.0803883 5.345813,10.2790251 L5.345813,7.01192862 L7.76305017,7.01192862 L7.76305017,10.2636141 C7.76305017,11.5273024 6.97279952,12.5598282 4.29214549,12.5598282 C2.66515893,12.5598282 1.3945599,12.205379 1.3945599,12.205379 L1.3945599,18.1077278 L5.53175431,18.1077278 C7.08126529,18.1077278 8.35186432,16.8594503 8.35186432,15.3029563 L8.35186432,1.30992076 L4.23016506,1.30992076 L4.23016506,1.30992076 Z" id="Path" fill="url(#linearGradient-4)"></path>
                        <path d="M12.0242055,1.30992076 C10.4746944,1.30992076 9.20409538,2.55819817 9.20409538,4.11469221 L9.20409538,7.78247024 C9.91687039,7.18144779 11.1564792,6.79617698 13.1553484,6.88864199 C14.224511,6.93487447 15.3711492,7.22768027 15.3711492,7.22768027 L15.3711492,8.41431436 C14.7978302,8.12150856 14.1160453,7.85952439 13.232824,7.7978811 C11.7143032,7.69000528 10.8000917,8.42972522 10.8000917,9.72423508 C10.8000917,11.0341558 11.7143032,11.7738757 13.232824,11.6505891 C14.1160453,11.5889457 14.7978302,11.3115507 15.3711492,11.0341558 L15.3711492,12.2207898 C15.3711492,12.2207898 14.2400062,12.5135957 13.1553484,12.5598282 C11.1564792,12.6522931 9.91687039,12.2670224 9.20409538,11.6659999 L9.20409538,18.1385494 L13.3412898,18.1385494 C14.8908008,18.1385494 16.1613998,16.890272 16.1613998,15.3337779 L16.1613998,1.30992076 L12.0242055,1.30992076 L12.0242055,1.30992076 Z" id="Path" fill="url(#linearGradient-5)"></path>
                    </g>
                </g>
            </g>
        </g>
    </g>
</svg>