<?xml version="1.0" encoding="UTF-8"?>
<svg width="30px" height="11px" viewBox="0 0 30 11" version="1.1" xmlns="http://www.w3.org/2000/svg" xmlns:xlink="http://www.w3.org/1999/xlink">
    <title>icon/32/credit_pay</title>
    <g id="1.4-註冊_和泰會員" stroke="none" stroke-width="1" fill="none" fill-rule="evenodd">
        <g id="和泰會員登入信用卡選擇" transform="translate(-47.000000, -135.000000)" fill="#1A1F71">
            <g id="cell/profile_status" transform="translate(47.000000, 120.000000)">
                <g id="Group" transform="translate(0.000000, 4.000000)">
                    <g id="Page-1" transform="translate(0.000000, 11.000000)">
                        <polygon id="Fill-1" points="12.195 0.790392857 10.68875 9.94017857 13.1275 9.94017857 14.63375 0.790392857"></polygon>
                        <path d="M21.81,1.02696429 C21.326875,0.841178571 20.569375,0.642535714 19.62375,0.642535714 C17.21375,0.642535714 15.515625,1.88389286 15.500625,3.66267857 C15.4875,4.97667857 16.713125,5.71017857 17.63875,6.14796429 C18.588125,6.59539286 18.906875,6.88275 18.9025,7.28260714 C18.896875,7.89589286 18.144375,8.17617857 17.443125,8.17617857 C16.466875,8.17617857 15.948125,8.03732143 15.146875,7.69596429 L14.8325,7.55003571 L14.49,9.59817857 C15.06,9.85403571 16.11375,10.0758214 17.2075,10.08675 C19.77125,10.0861071 21.435625,8.86082143 21.455,6.96053571 C21.46375,5.92039286 20.81375,5.12775 19.406875,4.47460714 C18.554375,4.05225 18.031875,3.77003571 18.0375,3.34060714 C18.0375,2.96067857 18.48,2.55375 19.434375,2.55375 C20.231875,2.54089286 20.81,2.71896429 21.260625,2.90410714 L21.47875,3.00953571 L21.81,1.02696429 Z" id="Fill-2"></path>
                        <path d="M25.9683125,0.790328571 C25.3839375,0.790328571 24.9614375,0.974185714 24.7051875,1.56947143 L21.0901875,9.94011429 L23.6726875,9.94011429 L24.1745625,8.53804286 L27.2595625,8.53804286 L27.5464375,9.94011429 L29.8420625,9.94011429 L27.8339375,0.790328571 L25.9683125,0.790328571 Z M24.8595625,6.70718571 C25.0614375,6.18068571 25.8314375,4.1499 25.8314375,4.1499 C25.8170625,4.17432857 26.0314375,3.62082857 26.1545625,3.27754286 L26.3195625,4.06568571 C26.3195625,4.06568571 26.7864375,6.24947143 26.8845625,6.70782857 L24.8595625,6.70782857 L24.8595625,6.70718571 Z" id="Fill-5"></path>
                        <path d="M6.240875,7.06223571 L6.025875,5.80802143 C5.580875,4.34552143 4.199625,2.76345 2.6515,1.97145 L4.8065,9.93966429 L7.389,9.93966429 L11.26275,0.790521429 L8.68025,0.790521429 L6.240875,7.06223571 Z" id="Fill-8"></path>
                        <path d="M0,0.790328571 L0,0.938185714 C3.06,1.69547143 5.185,3.60925714 6.02625,5.80782857 L5.141875,1.5714 C4.994375,0.992185714 4.546875,0.810257143 4.0175,0.790328571 L0,0.790328571 Z" id="Fill-10"></path>
                    </g>
                </g>
            </g>
        </g>
    </g>
</svg>